<?xml version="1.0" encoding="UTF-8"?>
<svg version="1.1" xmlns="http://www.w3.org/2000/svg" width="1448" height="1086">
<path d="M0 0 C477.84 0 955.68 0 1448 0 C1448 358.38 1448 716.76 1448 1086 C970.16 1086 492.32 1086 0 1086 C0 727.62 0 369.24 0 0 Z " fill="#FEFDFE" transform="translate(0,0)"/>
<path d="M0 0 C12.5311954 2.89535961 22.26664741 12.99053841 28.88891602 23.49389648 C35.25295447 34.10440945 38.14904246 44.32229972 38.1418457 56.56933594 C38.14532013 57.52786972 38.14879456 58.4864035 38.15237427 59.47398376 C38.15971787 61.55392631 38.16507068 63.63387663 38.16866493 65.71382904 C38.17586017 69.02064761 38.19155352 72.32732033 38.21000671 75.63409424 C38.2623045 85.03615206 38.31034747 94.43813216 38.32592773 103.84033203 C38.33609142 109.59752362 38.36563259 115.35435031 38.40724754 121.11139679 C38.41945068 123.29111197 38.42469866 125.47087896 38.42244911 127.65062714 C38.40484954 150.28814258 41.46976434 171.81909194 57.203125 189.37109375 C62.6813503 194.33722407 68.94546654 197.87326565 76 200 C77.04876413 197.01102223 78.03864876 194.01772242 79 191 C79.50956238 189.45404648 79.50956238 189.45404648 80.02941895 187.87686157 C82.95002029 178.17096052 83.55255233 169.17193325 83.4858551 159.06974411 C83.46828508 156.32583148 83.47626308 153.5829441 83.4901123 150.83901978 C83.51520455 145.01760619 83.5099969 139.19644543 83.5 133.375 C83.48840056 126.61140757 83.48987985 119.84832621 83.52406311 113.08479691 C83.53106823 110.40546023 83.51460153 107.72696868 83.49694824 105.04769897 C83.49873925 89.75846131 86.24935431 76.05083937 97.27734375 64.64453125 C102.76551976 59.63120574 109.21301553 54 117 54 C117.04687002 70.07344691 117.08206197 86.14687141 117.10362434 102.22037029 C117.11390543 109.68477867 117.12790465 117.1491444 117.15087891 124.61352539 C117.17091036 131.1249273 117.18373941 137.6362983 117.18817699 144.14773017 C117.19076798 147.59053204 117.19679059 151.03324556 117.21146011 154.47601891 C117.22608138 158.33391835 117.22797349 162.19163764 117.22705078 166.04956055 C117.23424133 167.17166428 117.24143188 168.29376801 117.24884033 169.44987488 C117.22260395 179.65726874 116.54919761 189.72663563 112 199 C111.41323734 200.58206568 110.83022967 202.16552666 110.25 203.75 C104.69630521 217.56088629 95.33935298 228.33032351 82 235 C81.34 235.3403125 80.68 235.680625 80 236.03125 C68.56582743 240.85504155 54.53536489 238.7578176 43.32421875 234.46875 C24.34085381 226.08127031 12.11757303 211.05245193 4.21660805 192.1231308 C-2.19494424 174.5655742 -0.64798199 155.20950198 -0.50696969 136.83645916 C-0.47536543 132.01326254 -0.47274895 127.19004446 -0.46684265 122.36676025 C-0.45140305 113.26537606 -0.41051077 104.16429802 -0.3600952 95.06304765 C-0.30389103 84.68797587 -0.27663769 74.31288821 -0.25161803 63.9377017 C-0.19958426 42.62496466 -0.11183771 21.31250175 0 0 Z " fill="#B5E8F5" transform="translate(295,410)"/>
<path d="M0 0 C0.07020398 22.72300817 0.12304388 45.44599836 0.15543652 68.16909313 C0.17087939 78.72075726 0.19191942 89.27235384 0.22631836 99.82397461 C0.25629987 109.02500004 0.27559374 118.22597653 0.28226548 127.42704946 C0.28616295 132.29510358 0.29526837 137.16301775 0.31719017 142.03102684 C0.33769382 146.62171824 0.343806 151.21221325 0.33932304 155.80294609 C0.34014208 157.47939372 0.3460245 159.15584856 0.35761642 160.83225632 C0.44119559 173.55334829 -0.81829928 185.33458489 -6.1875 197.0625 C-6.64032349 198.06627686 -6.64032349 198.06627686 -7.10229492 199.09033203 C-14.56360837 215.12230571 -25.37179677 226.70785923 -41 235 C-41.97195313 235.52980469 -42.94390625 236.05960938 -43.9453125 236.60546875 C-55.08029313 241.79500933 -70.45644172 242.26406618 -82.1875 238.5 C-92.72336463 233.65417765 -99.84479 226.7141466 -106 217 C-106.42023438 216.34773437 -106.84046875 215.69546875 -107.2734375 215.0234375 C-115.29952146 201.80755489 -116.15896196 187.02464895 -116.11352539 171.95288086 C-116.11367142 170.67384888 -116.11381744 169.39481689 -116.1139679 168.07702637 C-116.11425292 164.59625104 -116.1084041 161.1155107 -116.10139394 157.63474345 C-116.09511108 153.98725614 -116.09455272 150.33976789 -116.09336853 146.692276 C-116.09026969 139.79707922 -116.08207593 132.90189844 -116.07201904 126.00670868 C-116.06081281 118.15175442 -116.05533612 110.29679937 -116.05032361 102.4418391 C-116.03989201 86.29455006 -116.02232077 70.14727708 -116 54 C-104.95390253 55.76287464 -97.17926297 61.53698809 -90.171875 70.28125 C-81.82575095 82.9268925 -81.42267039 97.259807 -81.48357964 111.8739109 C-81.49638823 114.9656127 -81.48476052 118.05644491 -81.46754456 121.14811707 C-81.44104302 126.59395648 -81.43524167 132.03957671 -81.43664551 137.48547363 C-81.43888791 146.21644552 -81.42456492 154.94714796 -81.38105965 163.67801476 C-81.3712921 166.70800185 -81.37989727 169.73755482 -81.38975525 172.76753235 C-81.3836074 174.63905108 -81.37669445 176.5105675 -81.36889648 178.38208008 C-81.37661575 179.21088181 -81.38433502 180.03968353 -81.39228821 180.89360046 C-81.32527139 188.74235828 -79.10858578 195.82634051 -76 203 C-67.47050629 200.39376581 -60.03648184 197.83075577 -54 191 C-53.54109375 190.54367187 -53.0821875 190.08734375 -52.609375 189.6171875 C-38.29459177 174.62433559 -37.56117416 154.96690127 -37.58930969 135.50212097 C-37.59384314 132.08606756 -37.5796334 128.67051724 -37.56091309 125.2545166 C-37.52438291 118.00301883 -37.51046161 110.75157617 -37.5 103.5 C-37.48786328 95.08729719 -37.46610072 86.67484396 -37.41999817 78.26225281 C-37.40655686 74.92005234 -37.41057424 71.57817818 -37.41540527 68.23596191 C-37.37983945 54.46504432 -36.98165996 41.20553122 -30.375 28.75 C-29.85667603 27.74743164 -29.85667603 27.74743164 -29.32788086 26.72460938 C-26.05964412 20.66119906 -21.99268242 15.74644468 -17 11 C-15.83210937 9.87271484 -15.83210937 9.87271484 -14.640625 8.72265625 C-5.23971519 0 -5.23971519 0 0 0 Z " fill="#B5E9F5" transform="translate(547,410)"/>
<path d="M0 0 C0.00879936 1.35183884 0.00879936 1.35183884 0.01777649 2.73098755 C0.07574394 11.23522405 0.147844 19.73919905 0.23571491 28.24318123 C0.28039182 32.61490145 0.31965377 36.98652906 0.34643555 41.35839844 C0.37249539 45.57960838 0.41291653 49.80046143 0.46318626 54.02145004 C0.4798369 55.62969388 0.49136241 57.23799942 0.49761391 58.84631729 C0.5072749 61.10381499 0.53535629 63.36040335 0.56762695 65.61767578 C0.57873001 66.90118927 0.58983307 68.18470276 0.60127258 69.5071106 C1.13450264 74.17825573 2.48841577 77.63012679 6 80.8125 C9.42689878 82.84722115 12.20653495 83.13083826 16.10624695 83.15821838 C17.69008682 83.17290161 17.69008682 83.17290161 19.30592346 83.18788147 C20.46397995 83.19363693 21.62203644 83.1993924 22.81518555 83.20532227 C24.03481995 83.21522186 25.25445435 83.22512146 26.51104736 83.23532104 C29.85579915 83.26151521 33.20052699 83.28337461 36.54531837 83.30332303 C40.04072117 83.3251893 43.53608057 83.35257485 47.03144836 83.37937927 C53.650569 83.42929749 60.26971374 83.47423955 66.8888815 83.51740164 C74.4245074 83.56678145 81.96008975 83.62169682 89.49567354 83.67708123 C104.99707546 83.7908879 120.49851742 83.89772981 136 84 C135.97643433 83.14619751 135.97643433 83.14619751 135.95239258 82.27514648 C135.88951561 79.66270126 135.85084468 77.0504159 135.8125 74.4375 C135.78736328 73.54224609 135.76222656 72.64699219 135.73632812 71.72460938 C135.66437947 65.17728222 136.37169026 60.25197646 140.61328125 55.00390625 C141.17402344 54.52824219 141.73476563 54.05257812 142.3125 53.5625 C142.86550781 53.06878906 143.41851563 52.57507813 143.98828125 52.06640625 C146.7062442 50.62562201 148.96584606 50.92964206 152 51 C152.02505615 51.93384521 152.0501123 52.86769043 152.07592773 53.82983398 C152.17086928 57.28325189 152.27011258 60.7364896 152.37231445 64.18969727 C152.41571813 65.68639269 152.45738913 67.18313939 152.49731445 68.67993164 C152.55488616 70.82714312 152.61861716 72.97409521 152.68359375 75.12109375 C152.73858032 77.06133423 152.73858032 77.06133423 152.79467773 79.04077148 C152.6667278 81.88555008 152.6667278 81.88555008 154 83 C156.43299787 83.12492389 158.83904923 83.18601507 161.27368164 83.20532227 C162.41506844 83.22017166 162.41506844 83.22017166 163.57951355 83.23532104 C166.1063623 83.26702624 168.63322988 83.2917289 171.16015625 83.31640625 C172.90751141 83.33696801 174.65486151 83.35796426 176.40220642 83.37937927 C181.01026318 83.43468041 185.61836541 83.48405408 190.22650146 83.53222656 C194.92513089 83.58238303 199.62369394 83.63809958 204.32226562 83.69335938 C213.54812044 83.80103924 222.77403278 83.90246223 232 84 C232.49458305 82.56838288 232.98468627 81.13521759 233.47290039 79.70141602 C233.74630753 78.90349136 234.01971466 78.10556671 234.30140686 77.28346252 C236.13314793 71.2961262 236.01534885 64.45603335 233.5 58.6875 C229.38707382 51.72159334 222.50320352 46.78756787 215 44 C211.89491138 43.42382601 208.90303286 43.33106088 205.75 43.375 C204.91734619 43.384104 204.08469238 43.39320801 203.22680664 43.40258789 C189.54174507 43.9104242 180.66693207 51.9253382 171.63671875 61.5078125 C167.91352312 65.4672559 167.91352312 65.4672559 165 70 C164.34 70 163.68 70 163 70 C163 58.07535785 168.68148955 47.00400471 176.75 38.375 C187.54631869 28.46444739 198.74205609 26.3300633 212.796875 26.6015625 C223.49473003 27.1500707 232.21584487 32.06907364 239.80859375 39.51171875 C245.66827087 46.16522022 250.19364379 53.04368635 251 62 C251.0928125 62.98742187 251.185625 63.97484375 251.28125 64.9921875 C251.78430803 75.48094736 249.04808817 85.06061663 242 93 C235.10480113 98.24634696 229.12686414 99.29782895 220.72796631 99.28088379 C219.80292903 99.28682603 218.87789176 99.29276828 217.92482305 99.29889059 C214.82972798 99.31621338 211.7347881 99.31927668 208.63964844 99.32226562 C206.4185605 99.33152555 204.19747573 99.34157536 201.97639465 99.35235596 C195.94528031 99.37857222 189.91421046 99.39148745 183.88304806 99.40037727 C180.11362804 99.40624338 176.34422013 99.41445384 172.57480621 99.42338562 C162.12786376 99.44759548 151.68092846 99.46836262 141.2339592 99.4751358 C140.56603779 99.47557494 139.89811638 99.47601407 139.20995493 99.47646651 C138.20574993 99.47712134 138.20574993 99.47712134 137.18125796 99.4777894 C135.82477744 99.47867632 134.46829692 99.47956944 133.11181641 99.48046875 C132.10253625 99.48113304 132.10253625 99.48113304 131.07286659 99.48181075 C120.17408316 99.4897042 109.27556737 99.5246085 98.37688729 99.57118779 C87.17371048 99.61868005 75.97063112 99.64302702 64.76734376 99.64587164 C58.48253318 99.64796641 52.1981004 99.65975326 45.91338348 99.69551086 C40.00020308 99.72850099 34.08768391 99.73277006 28.1744442 99.71523285 C26.00811935 99.71369364 23.84175874 99.72235758 21.67552376 99.74214935 C0.24009911 99.92645958 0.24009911 99.92645958 -7 93 C-12.59254469 86.79464204 -16.34786138 80.64696909 -16.45166016 72.11181641 C-16.46334229 71.45079422 -16.47502441 70.78977203 -16.48706055 70.10871887 C-16.52045202 67.93951627 -16.53136219 65.77099892 -16.5390625 63.6015625 C-16.55125682 62.08230357 -16.56374327 60.56304697 -16.57650757 59.04379272 C-16.59893283 55.86475239 -16.6085323 52.68595089 -16.61083984 49.50683594 C-16.61612187 45.4489175 -16.66746385 41.3930052 -16.73035622 37.3356266 C-16.77137696 34.19898797 -16.78048317 31.06282799 -16.78095627 27.92594528 C-16.7863144 26.43086622 -16.80306527 24.93577994 -16.83180618 23.44096756 C-17.06272726 10.33982055 -17.06272726 10.33982055 -12.70068359 5.14599609 C-8.7367802 1.30315858 -5.56886032 -0.30938113 0 0 Z " fill="#5DC8F4" transform="translate(804,432)"/>
<path d="M0 0 C11.04609747 1.76287464 18.82073703 7.53698809 25.828125 16.28125 C34.17424905 28.9268925 34.57732961 43.259807 34.51642036 57.8739109 C34.50361177 60.9656127 34.51523948 64.05644491 34.53245544 67.14811707 C34.55895698 72.59395648 34.56475833 78.03957671 34.56335449 83.48547363 C34.56111209 92.21644552 34.57543508 100.94714796 34.61894035 109.67801476 C34.6287079 112.70800185 34.62010273 115.73755482 34.61024475 118.76753235 C34.6163926 120.63905108 34.62330555 122.5105675 34.63110352 124.38208008 C34.62338425 125.21088181 34.61566498 126.03968353 34.60771179 126.89360046 C34.67472861 134.74235828 36.89141422 141.82634051 40 149 C48.52949371 146.39376581 55.96351816 143.83075577 62 137 C62.45890625 136.54367187 62.9178125 136.08734375 63.390625 135.6171875 C71.56063084 127.06018138 75.80401941 115.41909907 78 104 C78.33 104 78.66 104 79 104 C80.02725758 140.97337079 80.02725758 140.97337079 72.015625 156.96484375 C70.77784619 159.44516205 69.76817942 161.9847852 68.75 164.5625 C68.41484375 165.40941406 68.0796875 166.25632812 67.734375 167.12890625 C67.37085938 168.05509766 67.37085938 168.05509766 67 169 C73.55276707 171.28584898 80.10401439 171.60594368 87 172 C82.45150785 177.52316903 76.45505963 180.14322633 70 183 C69.40952881 183.27432861 68.81905762 183.54865723 68.21069336 183.83129883 C62.54904445 186.25032123 57.29517556 186.50458852 51.1875 186.4375 C50.21063232 186.42847656 49.23376465 186.41945313 48.22729492 186.41015625 C35.99618487 186.11589849 27.11377654 182.2852514 18 174 C15.01546866 170.51470837 12.45414824 166.87313443 10 163 C9.57976562 162.34773437 9.15953125 161.69546875 8.7265625 161.0234375 C0.70047854 147.80755489 -0.15896196 133.02464895 -0.11352539 117.95288086 C-0.11367142 116.67384888 -0.11381744 115.39481689 -0.1139679 114.07702637 C-0.11425292 110.59625104 -0.1084041 107.1155107 -0.10139394 103.63474345 C-0.09511108 99.98725614 -0.09455272 96.33976789 -0.09336853 92.692276 C-0.09026969 85.79707922 -0.08207593 78.90189844 -0.07201904 72.00670868 C-0.06081281 64.15175442 -0.05533612 56.29679937 -0.05032361 48.4418391 C-0.03989201 32.29455006 -0.02232077 16.14727708 0 0 Z " fill="#B4E8F5" transform="translate(431,464)"/>
<path d="M0 0 C0.04687002 16.07344691 0.08206197 32.14687141 0.10362434 48.22037029 C0.11390543 55.68477867 0.12790465 63.1491444 0.15087891 70.61352539 C0.17091036 77.1249273 0.18373941 83.6362983 0.18817699 90.14773017 C0.19076798 93.59053204 0.19679059 97.03324556 0.21146011 100.47601891 C0.22608138 104.33391835 0.22797349 108.19163764 0.22705078 112.04956055 C0.23424133 113.17166428 0.24143188 114.29376801 0.24884033 115.44987488 C0.22260395 125.65726874 -0.45080239 135.72663563 -5 145 C-5.58676266 146.58206568 -6.16977033 148.16552666 -6.75 149.75 C-12.30369479 163.56088629 -21.66064702 174.33032351 -35 181 C-35.66 181.3403125 -36.32 181.680625 -37 182.03125 C-48.50356514 186.88431654 -62.48012701 184.69472387 -73.76171875 180.44140625 C-77.85452676 178.61963767 -81.3897185 176.65245171 -85 174 C-85 173.67 -85 173.34 -85 173 C-83.89140625 172.79503906 -82.7828125 172.59007812 -81.640625 172.37890625 C-80.17707133 172.10683538 -78.71353033 171.83469638 -77.25 171.5625 C-76.15558594 171.36043945 -76.15558594 171.36043945 -75.0390625 171.15429688 C-71.66453325 170.52540733 -68.32365306 169.85677827 -65 169 C-66.25622782 164.93958592 -67.78694924 161.35543385 -69.8125 157.625 C-75.31045146 146.85817839 -79.14757016 134.85954926 -79.09765625 122.73046875 C-79.0962413 122.04946609 -79.09482635 121.36846344 -79.09336853 120.66682434 C-79.08780298 118.50700353 -79.07525703 116.34728911 -79.0625 114.1875 C-79.05748054 112.71679838 -79.05291841 111.24609512 -79.04882812 109.77539062 C-79.03784488 106.1835596 -79.02060422 102.5917902 -79 99 C-78.34 99.33 -77.68 99.66 -77 100 C-76.22843226 102.76627969 -75.53873899 105.52053756 -74.875 108.3125 C-72.66894448 116.89330112 -69.53755786 123.00635123 -64 130 C-63.51789063 130.67289063 -63.03578125 131.34578125 -62.5390625 132.0390625 C-57.22201336 139.01576859 -49.29144873 143.50037207 -41 146 C-39.95123587 143.01102223 -38.96135124 140.01772242 -38 137 C-37.49043762 135.45404648 -37.49043762 135.45404648 -36.97058105 133.87686157 C-34.04997971 124.17096052 -33.44744767 115.17193325 -33.5141449 105.06974411 C-33.53171492 102.32583148 -33.52373692 99.5829441 -33.5098877 96.83901978 C-33.48479545 91.01760619 -33.4900031 85.19644543 -33.5 79.375 C-33.51159944 72.61140757 -33.51012015 65.84832621 -33.47593689 59.08479691 C-33.46893177 56.40546023 -33.48539847 53.72696868 -33.50305176 51.04769897 C-33.50126075 35.75846131 -30.75064569 22.05083937 -19.72265625 10.64453125 C-14.23448024 5.63120574 -7.78698447 0 0 0 Z " fill="#B1E8F4" transform="translate(412,464)"/>
<path d="M0 0 C9.46221186 5.71082167 16.27915284 13.98367025 19.546875 24.51171875 C23.48342837 41.17859341 20.76638056 59.13145427 12.390625 73.82421875 C7.50409626 81.61334556 2.20792029 87.95565796 -5.5625 92.9375 C-6.160625 93.32679688 -6.75875 93.71609375 -7.375 94.1171875 C-14.55817809 98.51047053 -22.22532166 100.16927596 -30.5625 98.9375 C-33.375 96.9375 -33.375 96.9375 -35.5625 93.9375 C-36.09875 93.24011719 -36.635 92.54273438 -37.1875 91.82421875 C-38.67718536 89.8828001 -40.13002525 87.92130523 -41.5625 85.9375 C-40.593125 85.87433594 -39.62375 85.81117188 -38.625 85.74609375 C-25.88446977 84.67649858 -12.49350343 81.42175448 -3.62890625 71.515625 C-2.36779318 69.80196081 -2.36779318 69.80196081 -1.5625 66.9375 C-2.53703125 67.26105469 -3.5115625 67.58460938 -4.515625 67.91796875 C-15.68191064 71.09110168 -30.05710517 70.03437972 -40.203125 64.49609375 C-49.67791593 58.38286787 -54.98964255 51.08822942 -57.8984375 40.19921875 C-59.89831631 30.37628461 -58.56184212 22.68634872 -53.5625 13.9375 C-41.11559105 -3.4342686 -19.55523941 -9.77761971 0 0 Z " fill="#79DCF2" transform="translate(1134.5625,463.0625)"/>
<path d="M0 0 C0.16349082 9.98919894 0.28721916 19.97807034 0.3626852 29.96834373 C0.39893872 34.60926551 0.4479646 39.2492601 0.52807617 43.88964844 C0.60515007 48.38313278 0.64619875 52.87573585 0.6641407 57.36983109 C0.67689608 59.06882193 0.70179401 60.76777446 0.7401104 62.46638107 C1.08910729 78.60645356 -2.5631785 93.98632128 -14 106 C-14.5465625 106.66902344 -15.093125 107.33804688 -15.65625 108.02734375 C-23.46459722 116.94872292 -36.6860187 123.19713336 -48.49804688 124.21533203 C-59.41253781 124.70764015 -70.01620464 124.94798069 -80 120 C-81.02351562 119.50242187 -82.04703125 119.00484375 -83.1015625 118.4921875 C-94.26520173 112.53639982 -102.84923319 103.08372016 -107.03515625 91.015625 C-110.19934546 79.41850362 -109.91503361 68.04226417 -104.55859375 57.0390625 C-99.40127642 48.495386 -92.63166007 41.09046619 -84 36 C-83.34 36.33 -82.68 36.66 -82 37 C-82.53109375 37.66644531 -83.0621875 38.33289063 -83.609375 39.01953125 C-92.16251066 50.17918817 -95.410697 60.02062509 -94.27050781 73.97998047 C-93.10498285 82.68354864 -88.21633468 90.91644141 -82 97 C-71.62317416 104.84715188 -61.46980027 107.09932903 -48.65625 105.75390625 C-39.02986261 104.06231281 -28.74373332 99.08717652 -23 91 C-19.15007362 83.92337292 -16.88943854 77.82364044 -16.84228516 69.76611328 C-16.83202301 68.50445343 -16.82176086 67.24279358 -16.81118774 65.94290161 C-16.80603086 64.93559179 -16.80603086 64.93559179 -16.80076981 63.90793228 C-16.78893266 61.79716024 -16.76946807 59.68658839 -16.74765015 57.57589722 C-16.68619405 51.5762197 -16.63202476 45.57656488 -16.59863281 39.57666016 C-16.57763488 35.90196562 -16.54229413 32.22764057 -16.49787521 28.55315781 C-16.48375883 27.15703568 -16.47500265 25.76084823 -16.47182083 24.36465836 C-16.46688744 22.4072502 -16.44207614 20.44992311 -16.41650391 18.49267578 C-16.40841705 17.38111115 -16.4003302 16.26954651 -16.39199829 15.1242981 C-15.86021639 10.88589909 -14.39342888 7.49270626 -11.46484375 4.35546875 C-7.25381736 1.1352721 -5.2810852 -0.13897593 0 0 Z " fill="#7CDFF2" transform="translate(775,432)"/>
<path d="M0 0 C6.75986377 5.64169081 12.15514819 12.2687854 13.109375 21.2421875 C13.52595607 32.79661932 11.36444405 40.50234456 3.453125 49.296875 C-3.97819723 55.97219691 -11.1130836 58.218596 -20.96606445 58.07739258 C-29.09894076 57.63204014 -34.8663099 54.85816725 -40.63671875 49.078125 C-47.96523913 40.49063638 -50.03553378 33.54852381 -49.765625 22.24609375 C-48.60101066 12.74478176 -43.79494434 5.90143779 -36.46875 -0.0234375 C-25.41198862 -7.93816957 -11.21647504 -7.70655768 0 0 Z " fill="#4AAEFB" transform="translate(442.296875,383.578125)"/>
<path d="M0 0 C0.66 0.33 1.32 0.66 2 1 C2.77156774 3.76627969 3.46126101 6.52053756 4.125 9.3125 C6.33105552 17.89330112 9.46244214 24.00635123 15 31 C15.48210937 31.67289063 15.96421875 32.34578125 16.4609375 33.0390625 C23.42394074 42.17548872 34.83944309 47.46165297 46 49 C48.08996873 49.07733849 50.18206395 49.10800958 52.2734375 49.09765625 C53.42714844 49.09443359 54.58085937 49.09121094 55.76953125 49.08789062 C57.55423828 49.07532227 57.55423828 49.07532227 59.375 49.0625 C60.58800781 49.05798828 61.80101562 49.05347656 63.05078125 49.04882812 C66.03390507 49.03708354 69.01692679 49.0206584 72 49 C69.75266843 61.25990552 59.79261197 71.83880484 49.8359375 78.82421875 C39.38366558 85.51812055 26.92763158 86.92104373 14.83496094 84.58105469 C7.26268625 82.64763164 0.30651594 79.63335865 -6 75 C-6 74.67 -6 74.34 -6 74 C-4.89140625 73.79503906 -3.7828125 73.59007812 -2.640625 73.37890625 C-1.17707133 73.10683538 0.28646967 72.83469638 1.75 72.5625 C2.84441406 72.36043945 2.84441406 72.36043945 3.9609375 72.15429688 C7.33546675 71.52540733 10.67634694 70.85677827 14 70 C12.74377218 65.93958592 11.21305076 62.35543385 9.1875 58.625 C3.68954854 47.85817839 -0.14757016 35.85954926 -0.09765625 23.73046875 C-0.0962413 23.04946609 -0.09482635 22.36846344 -0.09336853 21.66682434 C-0.08780298 19.50700353 -0.07525703 17.34728911 -0.0625 15.1875 C-0.05748054 13.71679838 -0.05291841 12.24609512 -0.04882812 10.77539062 C-0.03784488 7.1835596 -0.02060422 3.5917902 0 0 Z " fill="#32AAFA" transform="translate(333,563)"/>
<path d="M0 0 C0.33 0 0.66 0 1 0 C2.02725758 36.97337079 2.02725758 36.97337079 -5.984375 52.96484375 C-7.22215381 55.44516205 -8.23182058 57.9847852 -9.25 60.5625 C-9.58515625 61.40941406 -9.9203125 62.25632812 -10.265625 63.12890625 C-10.50796875 63.74636719 -10.7503125 64.36382813 -11 65 C-4.44723293 67.28584898 2.10401439 67.60594368 9 68 C4.45150785 73.52316903 -1.54494037 76.14322633 -8 79 C-8.59047119 79.27432861 -9.18094238 79.54865723 -9.78930664 79.83129883 C-15.45175324 82.25066205 -20.70426303 82.50252587 -26.8125 82.4375 C-28.27236328 82.42831543 -28.27236328 82.42831543 -29.76171875 82.41894531 C-36.77543752 82.26616659 -42.77806871 81.44491111 -49 78 C-49.65355469 77.64164063 -50.30710937 77.28328125 -50.98046875 76.9140625 C-52.6875 75.875 -52.6875 75.875 -55 74 C-55 73.34 -55 72.68 -55 72 C-53.41800369 71.35089846 -51.83434276 70.70585306 -50.25 70.0625 C-48.92742187 69.52302734 -48.92742187 69.52302734 -47.578125 68.97265625 C-45.38813896 68.14643424 -43.28101729 67.50630057 -41 67 C-41.474375 65.906875 -41.94875 64.81375 -42.4375 63.6875 C-46.63190056 52.25182301 -45.10859068 38.99676433 -45 27 C-43.13470876 29.79793686 -42.38932826 31.69468482 -41.5 34.875 C-40.50174506 38.34102221 -39.43664027 41.68467629 -38 45 C-29.47050629 42.39376581 -22.03648184 39.83075577 -16 33 C-15.54109375 32.54367187 -15.0821875 32.08734375 -14.609375 31.6171875 C-6.43936916 23.06018138 -2.19598059 11.41909907 0 0 Z " fill="#80D6FB" transform="translate(509,568)"/>
<path d="M0 0 C6.79746427 3.47028439 13.36709951 10.05721118 16.2265625 17.19921875 C17.22679075 21.69080975 17.33237883 25.98268804 17.2890625 30.57421875 C17.28003906 31.81945312 17.27101563 33.0646875 17.26171875 34.34765625 C17.25011719 35.28867187 17.23851562 36.2296875 17.2265625 37.19921875 C7.75899023 42.52770163 -3.39926908 42.68519727 -13.875 40.57421875 C-21.45230023 37.94679576 -26.73968461 32.63117676 -30.7734375 25.82421875 C-32.40925699 19.8943731 -33.07628008 14.00964656 -30.1484375 8.38671875 C-22.83536493 -1.42819443 -11.52870886 -3.32871171 0 0 Z " fill="#FAFDFD" transform="translate(1122.7734375,473.80078125)"/>
<path d="M0 0 C0.99 0.495 0.99 0.495 2 1 C2.77156774 3.76627969 3.46126101 6.52053756 4.125 9.3125 C6.33105552 17.89330112 9.46244214 24.00635123 15 31 C15.48210937 31.67289063 15.96421875 32.34578125 16.4609375 33.0390625 C21.38265565 39.49703949 28.78119422 43.52616154 36 47 C35.10175213 54.09742335 30.05563976 59.30773362 24.83203125 63.91015625 C21.6860126 66.31246318 18.57420528 68.2919727 15 70 C7.31917734 55.69105626 -0.16570061 40.26524942 -0.09765625 23.73046875 C-0.0962413 23.04946609 -0.09482635 22.36846344 -0.09336853 21.66682434 C-0.08780298 19.50700353 -0.07525703 17.34728911 -0.0625 15.1875 C-0.05748054 13.71679838 -0.05291841 12.24609512 -0.04882812 10.77539062 C-0.03784488 7.1835596 -0.02060422 3.5917902 0 0 Z " fill="#60BAF9" transform="translate(333,563)"/>
<path d="M0 0 C0.33 0 0.66 0 1 0 C2.05608841 38.01105895 2.05608841 38.01105895 -7 55 C-7.70845288 56.45827526 -8.41678794 57.91660777 -9.125 59.375 C-10.30326724 61.74127223 -11.52087358 63.78131037 -13 66 C-23.2808693 62.18882784 -32.24423158 56.05943643 -37 46 C-35.35451172 45.22076172 -35.35451172 45.22076172 -33.67578125 44.42578125 C-32.22109057 43.72189866 -30.76667807 43.01744098 -29.3125 42.3125 C-28.59126953 41.97283203 -27.87003906 41.63316406 -27.12695312 41.28320312 C-22.61653515 39.07948293 -19.39435991 36.79333531 -16 33 C-15.48695313 32.49597656 -14.97390625 31.99195313 -14.4453125 31.47265625 C-6.4023861 22.88243013 -2.1865669 11.3701479 0 0 Z " fill="#52B3FC" transform="translate(509,568)"/>
<path d="M0 0 C0.66 0 1.32 0 2 0 C2 5.94 2 11.88 2 18 C9.26 18 16.52 18 24 18 C24 17.34 24 16.68 24 16 C23.21625 16.04125 22.4325 16.0825 21.625 16.125 C19 16 19 16 17 14 C16.75 11.5 16.75 11.5 17 9 C19 7 19 7 21.4375 6.75 C24 7 24 7 27 9 C27.36328125 11.09375 27.36328125 11.09375 27.3125 13.5 C27.30863281 14.2940625 27.30476562 15.088125 27.30078125 15.90625 C27 18 27 18 25 20 C23.01315308 20.24050903 23.01315308 20.24050903 20.55029297 20.22705078 C19.62948944 20.22689972 18.70868591 20.22674866 17.75997925 20.22659302 C16.76410797 20.21627045 15.76823669 20.20594788 14.7421875 20.1953125 C13.72399933 20.1924826 12.70581116 20.18965271 11.6567688 20.18673706 C8.396061 20.1755177 5.13562516 20.15040996 1.875 20.125 C-0.33202729 20.11497247 -2.53905888 20.10584623 -4.74609375 20.09765625 C-10.16415572 20.07557268 -15.58205843 20.04207795 -21 20 C-21.19916016 20.95132813 -21.19916016 20.95132813 -21.40234375 21.921875 C-22 24 -22 24 -23.5625 25.25 C-27.0951904 26.33698166 -30.38009557 26.69530838 -34 26 C-37 23.875 -37 23.875 -39 21 C-39.3125 17.6875 -39.3125 17.6875 -39 15 C-38.01 14.67 -37.02 14.34 -36 14 C-36.04125 14.928125 -36.0825 15.85625 -36.125 16.8125 C-36.27136339 20.15809719 -36.27136339 20.15809719 -34 23 C-32.098006 23.47558206 -32.098006 23.47558206 -30 23.375 C-28.948125 23.38660156 -28.948125 23.38660156 -27.875 23.3984375 C-25.58941406 23.140914 -25.58941406 23.140914 -24 20 C-24.78375 19.896875 -25.5675 19.79375 -26.375 19.6875 C-29 19 -29 19 -31 16 C-31.3125 12.4375 -31.3125 12.4375 -31 9 C-27.77626323 6.85084215 -26.73296326 6.61713197 -23 7 C-21 9 -21 9 -21 18 C-11.1 17.505 -11.1 17.505 -1 17 C-1.03957157 11.77936725 -1.03957157 11.77936725 -1.09008789 6.55883789 C-1.09723945 4.70566241 -1.0502852 2.85250692 -1 1 C-0.67 0.67 -0.34 0.34 0 0 Z " fill="#81CAF4" transform="translate(716,606)"/>
<path d="M0 0 C2.5625 0.3125 2.5625 0.3125 4.375 1.4375 C6.07607571 4.12340902 5.82747268 6.19907099 5.5625 9.3125 C5.2325 9.9725 4.9025 10.6325 4.5625 11.3125 C10.8325 10.9825 17.1025 10.6525 23.5625 10.3125 C23.8925 8.0025 24.2225 5.6925 24.5625 3.3125 C25.5525 2.9825 26.5425 2.6525 27.5625 2.3125 C27.5625 5.2825 27.5625 8.2525 27.5625 11.3125 C29.2125 10.9825 30.8625 10.6525 32.5625 10.3125 C32.8925 7.6725 33.2225 5.0325 33.5625 2.3125 C34.2225 2.3125 34.8825 2.3125 35.5625 2.3125 C35.5625 5.2825 35.5625 8.2525 35.5625 11.3125 C37.2125 10.9825 38.8625 10.6525 40.5625 10.3125 C40.8925 7.3425 41.2225 4.3725 41.5625 1.3125 C42.2225 1.3125 42.8825 1.3125 43.5625 1.3125 C43.61672947 2.7495809 43.65539723 4.18725462 43.6875 5.625 C43.71070313 6.42550781 43.73390625 7.22601562 43.7578125 8.05078125 C43.5625 10.3125 43.5625 10.3125 41.5625 13.3125 C39.15805054 13.67326355 39.15805054 13.67326355 36.10302734 13.65307617 C34.96199554 13.65284958 33.82096375 13.65262299 32.64535522 13.65238953 C30.79063095 13.62916374 30.79063095 13.62916374 28.8984375 13.60546875 C27.63609283 13.60122391 26.37374817 13.59697906 25.07315063 13.59260559 C21.71588649 13.57863137 18.35923068 13.55167302 15.00213623 13.51849365 C11.57699852 13.48781352 8.15179799 13.4741047 4.7265625 13.45898438 C-1.9949605 13.42584641 -8.71619511 13.37559539 -15.4375 13.3125 C-15.56125 13.93125 -15.685 14.55 -15.8125 15.1875 C-16.4375 17.3125 -16.4375 17.3125 -18.4375 19.3125 C-21.0625 19.4375 -21.0625 19.4375 -23.4375 19.3125 C-23.7675 18.3225 -24.0975 17.3325 -24.4375 16.3125 C-22.4575 15.9825 -20.4775 15.6525 -18.4375 15.3125 C-18.1075 10.6925 -17.7775 6.0725 -17.4375 1.3125 C-16.7775 1.3125 -16.1175 1.3125 -15.4375 1.3125 C-15.4375 4.6125 -15.4375 7.9125 -15.4375 11.3125 C-11.1475 11.3125 -6.8575 11.3125 -2.4375 11.3125 C-3.0975 10.3225 -3.7575 9.3325 -4.4375 8.3125 C-4.6875 5.25 -4.6875 5.25 -4.4375 2.3125 C-2.4375 0.3125 -2.4375 0.3125 0 0 Z " fill="#72C1F3" transform="translate(831.4375,612.6875)"/>
<path d="M0 0 C-0.33 0.66 -0.66 1.32 -1 2 C-0.45472656 2.12117187 0.09054687 2.24234375 0.65234375 2.3671875 C6.1015625 3.578125 11.55078125 4.7890625 17 6 C11.18856142 11.99513348 4.62982007 14.03807322 -3.625 14.4375 C-7.41632484 14.34957023 -8.65008421 14.24882901 -11.8125 12 C-12.534375 11.01 -13.25625 10.02 -14 9 C-14.53625 8.30261719 -15.0725 7.60523438 -15.625 6.88671875 C-17.11468536 4.9453001 -18.56752525 2.98380523 -20 1 C-17.41765641 0.63667026 -14.83460218 0.28405133 -12.25 -0.0625 C-11.52039062 -0.16626953 -10.79078125 -0.27003906 -10.0390625 -0.37695312 C-6.3892704 -0.85806208 -3.52327086 -1.04532842 0 0 Z " fill="#4CB6F8" transform="translate(1113,548)"/>
<path d="M0 0 C1.98 0 3.96 0 6 0 C6.144375 0.763125 6.28875 1.52625 6.4375 2.3125 C6.9632594 5.08172908 6.9632594 5.08172908 8 8 C8.11632729 9.51766539 8.17496239 11.0404346 8.1875 12.5625 C8.20167969 13.34753906 8.21585938 14.13257813 8.23046875 14.94140625 C8 17 8 17 6 19 C3.14599609 19.24291992 3.14599609 19.24291992 -0.4765625 19.23046875 C-2.44302734 19.22756836 -2.44302734 19.22756836 -4.44921875 19.22460938 C-5.1354834 19.21840576 -5.82174805 19.21220215 -6.52880859 19.20581055 C-8.59615658 19.18775195 -10.66305074 19.18529964 -12.73046875 19.18554688 C-30.89435291 19.10564709 -30.89435291 19.10564709 -34 16 C-34.54587156 9.99541284 -34.54587156 9.99541284 -32.9375 7.0625 C-29.98831309 5.44520395 -27.29132441 5.81369862 -24 6 C-23.67 9.3 -23.34 12.6 -23 16 C-13.76 16 -4.52 16 5 16 C3.02 15.34 1.04 14.68 -1 14 C-1.38218767 12.34385343 -1.71395102 10.67542976 -2 9 C-1.67 8.67 -1.34 8.34 -1 8 C-0.76924918 6.65252916 -0.58846937 5.29622435 -0.4375 3.9375 C-0.293125 2.638125 -0.14875 1.33875 0 0 Z " fill="#73C1F3" transform="translate(937,607)"/>
<path d="M0 0 C2 2 2 2 2.1953125 3.9453125 C2.13020833 5.96354167 2.06510417 7.98177083 2 10 C7.94 9.505 7.94 9.505 14 9 C14.45375 7.72125 14.9075 6.4425 15.375 5.125 C16.3490604 2.3799207 16.90217213 1.09782787 19 -1 C24.45454545 -0.54545455 24.45454545 -0.54545455 27 2 C27.36064764 5.31795832 27.31423956 7.37152087 25.8125 10.375 C24 12 24 12 21.5625 12.25 C20.716875 12.1675 19.87125 12.085 19 12 C15.46498852 12 11.96751302 12.07329855 8.4375 12.25 C7.30183594 12.29640625 6.16617188 12.3428125 4.99609375 12.390625 C1.39068652 13.12392817 0.98244871 14.06131132 -1 17 C-4.6875 17.25 -4.6875 17.25 -8 17 C-8 16.34 -8 15.68 -8 15 C-6.5459375 14.814375 -6.5459375 14.814375 -5.0625 14.625 C-4.051875 14.41875 -3.04125 14.2125 -2 14 C-1.67 13.34 -1.34 12.68 -1 12 C-1.94875 11.87625 -2.8975 11.7525 -3.875 11.625 C-7 11 -7 11 -9 9 C-9.375 5.5625 -9.375 5.5625 -9 2 C-6.17266771 -1.35091234 -4.03066587 -1.37891201 0 0 Z " fill="#84CEF8" transform="translate(987,614)"/>
<path d="M0 0 C0.33 2.97 0.66 5.94 1 9 C-6.86927453 12.70597097 -14.85280238 15.95613443 -23 19 C-24.5625 16.1875 -24.5625 16.1875 -26 13 C-25 10 -25 10 -22.80688477 8.74145508 C-21.86127686 8.33822021 -20.91566895 7.93498535 -19.94140625 7.51953125 C-18.91595703 7.07802734 -17.89050781 6.63652344 -16.83398438 6.18164062 C-15.75439453 5.72982422 -14.67480469 5.27800781 -13.5625 4.8125 C-11.94891602 4.11737305 -11.94891602 4.11737305 -10.30273438 3.40820312 C-2.30675856 0 -2.30675856 0 0 0 Z " fill="#50B4F9" transform="translate(1088,539)"/>
<path d="M0 0 C2.4375 0.8125 2.4375 0.8125 4.4375 2.8125 C4.70741906 5.50089385 4.52487357 8.10391936 4.4375 10.8125 C9.8825 10.3175 9.8825 10.3175 15.4375 9.8125 C15.7675 6.8425 16.0975 3.8725 16.4375 0.8125 C17.0975 0.8125 17.7575 0.8125 18.4375 0.8125 C18.49172947 2.2495809 18.53039723 3.68725462 18.5625 5.125 C18.58570313 5.92550781 18.60890625 6.72601562 18.6328125 7.55078125 C18.4375 9.8125 18.4375 9.8125 16.4375 12.8125 C13.6171875 13.10546875 13.6171875 13.10546875 10.3125 13 C8.66894531 12.95939453 8.66894531 12.95939453 6.9921875 12.91796875 C6.14914062 12.88316406 5.30609375 12.84835937 4.4375 12.8125 C4.2828125 13.740625 4.2828125 13.740625 4.125 14.6875 C3.4375 16.8125 3.4375 16.8125 0.4375 18.8125 C-2.25 18.4375 -2.25 18.4375 -4.5625 17.8125 C-4.5625 17.4825 -4.5625 17.1525 -4.5625 16.8125 C-2.9125 16.4825 -1.2625 16.1525 0.4375 15.8125 C0.7675 14.8225 1.0975 13.8325 1.4375 12.8125 C0.65375 12.68875 -0.13 12.565 -0.9375 12.4375 C-3.5625 11.8125 -3.5625 11.8125 -5.5625 9.8125 C-6.11436722 3.74196058 -6.11436722 3.74196058 -4.375 0.8125 C-2.5625 -0.1875 -2.5625 -0.1875 0 0 Z " fill="#63BEF5" transform="translate(955.5625,613.1875)"/>
<path d="M0 0 C0.99 0 1.98 0 3 0 C3 5.61 3 11.22 3 17 C8.94 17 14.88 17 21 17 C21 13.7 21 10.4 21 7 C21.99 7 22.98 7 24 7 C24.05422947 8.4370809 24.09289723 9.87475462 24.125 11.3125 C24.14820313 12.11300781 24.17140625 12.91351562 24.1953125 13.73828125 C24 16 24 16 22 19 C19.44604513 19.26711404 17.13725626 19.34849029 14.5859375 19.29296875 C13.85629791 19.28872391 13.12665833 19.28447906 12.37490845 19.28010559 C10.04123241 19.26329353 7.7084156 19.22563868 5.375 19.1875 C3.79428329 19.17245634 2.21355307 19.15876738 0.6328125 19.14648438 C-3.24512344 19.11338201 -7.12241598 19.06158404 -11 19 C-11 18.34 -11 17.68 -11 17 C-9.68 17 -8.36 17 -7 17 C-7 12.71 -7 8.42 -7 4 C-6.34 4 -5.68 4 -5 4 C-5 8.29 -5 12.58 -5 17 C-3.68 16.67 -2.36 16.34 -1 16 C-0.67 10.72 -0.34 5.44 0 0 Z " fill="#85CAF5" transform="translate(770,607)"/>
<path d="M0 0 C0 3.96 0 7.92 0 12 C8.58 12 17.16 12 26 12 C26 9.03 26 6.06 26 3 C26.99 2.67 27.98 2.34 29 2 C29.08090971 3.62418745 29.13914995 5.24951745 29.1875 6.875 C29.23970703 8.23238281 29.23970703 8.23238281 29.29296875 9.6171875 C29.19628906 10.40351562 29.09960938 11.18984375 29 12 C25.51910626 14.32059583 24.15301287 14.24622357 20.046875 14.23046875 C18.86996094 14.22853516 17.69304687 14.22660156 16.48046875 14.22460938 C15.24941406 14.21236328 14.01835938 14.20011719 12.75 14.1875 C11.53441406 14.18685547 10.31882812 14.18621094 9.06640625 14.18554688 C-3.39850027 14.12437776 -3.39850027 14.12437776 -8 13 C-10.29013653 9.5647952 -10.17842973 8.014669 -10 4 C-9.34 4 -8.68 4 -8 4 C-7.67 5.98 -7.34 7.96 -7 10 C-5.68 10.33 -4.36 10.66 -3 11 C-3 8.36 -3 5.72 -3 3 C-3.99 2.67 -4.98 2.34 -6 2 C-2.25 0 -2.25 0 0 0 Z " fill="#77C4F4" transform="translate(1040,612)"/>
<path d="M0 0 C1.98 0 3.96 0 6 0 C6.144375 0.763125 6.28875 1.52625 6.4375 2.3125 C6.9632594 5.08172908 6.9632594 5.08172908 8 8 C8.203125 10.19140625 8.203125 10.19140625 8.25 12.5625 C8.28867187 13.74005859 8.28867187 13.74005859 8.328125 14.94140625 C8.21984375 15.62074219 8.1115625 16.30007813 8 17 C7.01 17.66 6.02 18.32 5 19 C5 18.01 5 17.02 5 16 C3.02 15.34 1.04 14.68 -1 14 C-1.38218767 12.34385343 -1.71395102 10.67542976 -2 9 C-1.67 8.67 -1.34 8.34 -1 8 C-0.76924918 6.65252916 -0.58846937 5.29622435 -0.4375 3.9375 C-0.293125 2.638125 -0.14875 1.33875 0 0 Z " fill="#81CAF6" transform="translate(937,607)"/>
<path d="M0 0 C0.99 0.33 1.98 0.66 3 1 C3 7.93 3 14.86 3 22 C3.99 22.33 4.98 22.66 6 23 C4.41590006 22.88512252 2.83271037 22.75765492 1.25 22.625 C0.36828125 22.55539062 -0.5134375 22.48578125 -1.421875 22.4140625 C-3.99066382 22.00149945 -5.75841015 21.28839043 -8 20 C-7.34 20 -6.68 20 -6 20 C-3.70438191 13.40620337 -1.77910928 6.75052102 0 0 Z " fill="#85D9F8" transform="translate(377,590)"/>
<path d="M0 0 C1.8125 1 1.8125 1 3 3 C3.36662674 5.80125747 3.22715523 8.13784404 3 11 C1 13 1 13 -2.5 13.3125 C-4.2325 13.1578125 -4.2325 13.1578125 -6 13 C-8.46324069 9.30513897 -8.38991688 7.36706908 -8 3 C-5.95177941 -0.34183359 -3.7548828 -0.56323242 0 0 Z " fill="#6FC4F7" transform="translate(1025,652)"/>
<path d="M0 0 C0.66 0 1.32 0 2 0 C2.33 5.28 2.66 10.56 3 16 C9.93 16.495 9.93 16.495 17 17 C16.67 16.34 16.34 15.68 16 15 C15.8125 12 15.8125 12 16 9 C18 7 18 7 21.125 6.875 C22.07375 6.91625 23.0225 6.9575 24 7 C24.33 7.66 24.66 8.32 25 9 C24.195625 8.979375 23.39125 8.95875 22.5625 8.9375 C20.06645115 8.70366379 20.06645115 8.70366379 19 10 C18.95936168 11.66617115 18.957279 13.33388095 19 15 C21.31 15.66 23.62 16.32 26 17 C26 17.66 26 18.32 26 19 C22.04172765 19.05785647 18.0835633 19.09354717 14.125 19.125 C12.99707031 19.14175781 11.86914062 19.15851562 10.70703125 19.17578125 C9.09248047 19.18544922 9.09248047 19.18544922 7.4453125 19.1953125 C5.95281982 19.21102295 5.95281982 19.21102295 4.43017578 19.22705078 C2 19 2 19 0 17 C-0.14517744 14.0906442 -0.18630796 11.280054 -0.125 8.375 C-0.11597656 7.57320312 -0.10695313 6.77140625 -0.09765625 5.9453125 C-0.07406223 3.96341477 -0.03819065 1.98167019 0 0 Z " fill="#74C4F5" transform="translate(1073,607)"/>
<path d="M0 0 C6.625 -0.25 6.625 -0.25 10 2 C10.37033222 5.39471203 10.60921702 7.88907484 8.9375 10.9375 C5.98831309 12.55479605 3.29132441 12.18630138 0 12 C0 8.04 0 4.08 0 0 Z " fill="#6CC0F5" transform="translate(912,653)"/>
<path d="M0 0 C0.66 0 1.32 0 2 0 C2.05422947 1.4370809 2.09289723 2.87475462 2.125 4.3125 C2.14820313 5.11300781 2.17140625 5.91351562 2.1953125 6.73828125 C2 9 2 9 0 12 C-2.9765625 12.328125 -2.9765625 12.328125 -6.625 12.25 C-8.50445313 12.21132813 -8.50445313 12.21132813 -10.421875 12.171875 C-14.34232208 11.98355658 -18.12653934 11.61975371 -22 11 C-21.0409375 10.7215625 -21.0409375 10.7215625 -20.0625 10.4375 C-17.57873787 9.05753944 -17.57873787 9.05753944 -17.25 5.375 C-17.1675 4.26125 -17.085 3.1475 -17 2 C-16.01 1.67 -15.02 1.34 -14 1 C-14 3.97 -14 6.94 -14 10 C-12.35 9.67 -10.7 9.34 -9 9 C-8.67 6.36 -8.34 3.72 -8 1 C-7.34 1 -6.68 1 -6 1 C-6 3.97 -6 6.94 -6 10 C-4.35 9.67 -2.7 9.34 -1 9 C-0.67 6.03 -0.34 3.06 0 0 Z " fill="#6FC4F7" transform="translate(873,614)"/>
<path d="M0 0 C1.65 0 3.3 0 5 0 C5.33 1.65 5.66 3.3 6 5 C6.99 5 7.98 5 9 5 C9 7.31 9 9.62 9 12 C7.54176788 12.0270043 6.08339325 12.04639787 4.625 12.0625 C3.81289063 12.07410156 3.00078125 12.08570313 2.1640625 12.09765625 C0 12 0 12 -2 11 C-1.855625 10.29875 -1.71125 9.5975 -1.5625 8.875 C-0.98521625 5.92443859 -0.48304859 2.96729849 0 0 Z " fill="#67BEF6" transform="translate(847,653)"/>
<path d="M0 0 C2 2 2 2 2.3125 4.9375 C2 8 2 8 0.5 9.875 C0.005 10.24625 -0.49 10.6175 -1 11 C-3.31 10.34 -5.62 9.68 -8 9 C-9.32561852 2.61292897 -9.32561852 2.61292897 -7.9375 0 C-5.02830946 -1.5015177 -3.0821738 -0.85251616 0 0 Z " fill="#81CAF9" transform="translate(1012,614)"/>
<path d="M0 0 C1.32 0.66 2.64 1.32 4 2 C4 4.64 4 7.28 4 10 C9.94 9.505 9.94 9.505 16 9 C16.66 7.35 17.32 5.7 18 4 C18.33 4 18.66 4 19 4 C19 5.65 19 7.3 19 9 C21.31 9.33 23.62 9.66 26 10 C26 10.66 26 11.32 26 12 C23 12 20 12 17 12 C14.81159534 12.05464181 12.62384928 12.14055817 10.4375 12.25 C9.30183594 12.29640625 8.16617188 12.3428125 6.99609375 12.390625 C3.39068652 13.12392817 2.98244871 14.06131132 1 17 C-2.6875 17.25 -2.6875 17.25 -6 17 C-6 16.34 -6 15.68 -6 15 C-3.36 14.67 -0.72 14.34 2 14 C1.85866501 12.22880197 1.71176792 10.45804713 1.5625 8.6875 C1.48128906 7.70136719 1.40007813 6.71523438 1.31640625 5.69921875 C1.08187441 2.90624401 1.08187441 2.90624401 0 0 Z " fill="#84C9F5" transform="translate(985,614)"/>
<path d="M0 0 C0.99 0 1.98 0 3 0 C3.99 2.31 4.98 4.62 6 7 C6.99 4.69 7.98 2.38 9 0 C9.99 0 10.98 0 12 0 C12 3.96 12 7.92 12 12 C11.34 12 10.68 12 10 12 C9.67 10.02 9.34 8.04 9 6 C8.34 7.65 7.68 9.3 7 11 C6.01 11 5.02 11 4 11 C3.67 10.01 3.34 9.02 3 8 C2.67 9.32 2.34 10.64 2 12 C1.34 12 0.68 12 0 12 C0 8.04 0 4.08 0 0 Z " fill="#81CAF5" transform="translate(1098,653)"/>
<path d="M0 0 C0.99 0 1.98 0 3 0 C3.99 2.31 4.98 4.62 6 7 C6.99 4.69 7.98 2.38 9 0 C9.99 0 10.98 0 12 0 C12 3.96 12 7.92 12 12 C11.34 12 10.68 12 10 12 C9.67 10.02 9.34 8.04 9 6 C8.34 7.65 7.68 9.3 7 11 C6.01 10.67 5.02 10.34 4 10 C3.67 9.01 3.34 8.02 3 7 C2.67 8.65 2.34 10.3 2 12 C1.34 12 0.68 12 0 12 C0 8.04 0 4.08 0 0 Z " fill="#7AC6F3" transform="translate(875,653)"/>
<path d="M0 0 C2.5625 0.25 2.5625 0.25 5.5625 2.25 C5.85546875 4.4140625 5.85546875 4.4140625 5.75 6.875 C5.72292969 7.69226563 5.69585938 8.50953125 5.66796875 9.3515625 C5.63316406 9.97804688 5.59835937 10.60453125 5.5625 11.25 C4.9025 11.25 4.2425 11.25 3.5625 11.25 C3.5625 10.26 3.5625 9.27 3.5625 8.25 C2.61375 8.45625 1.665 8.6625 0.6875 8.875 C-0.34375 8.99875 -1.375 9.1225 -2.4375 9.25 C-4.4375 7.25 -4.4375 7.25 -4.6875 4.75 C-4.3425508 1.30050805 -3.45990757 0.35486231 0 0 Z " fill="#68BFF6" transform="translate(737.4375,612.75)"/>
<path d="M0 0 C1.7847964 5.0588931 -0.38277875 9.0836474 -2 14 C-6.29 14 -10.58 14 -15 14 C-11.66608945 10.66608945 -8.49809621 8.08212456 -4.70703125 5.3671875 C-2.87212987 4.09305272 -2.87212987 4.09305272 -2 2 C-1.34 2 -0.68 2 0 2 C0 1.34 0 0.68 0 0 Z " fill="#87DBF5" transform="translate(408,599)"/>
<path d="M0 0 C2.74086056 -0.22223194 4.43963721 -0.34781139 6.8125 1.125 C8.52849028 3.83445834 8.333728 5.86295684 8 9 C7.34 9.66 6.68 10.32 6 11 C2.76504607 10.03825694 1.22273752 9.27303309 -0.9375 6.625 C-2 4 -2 4 -1.1875 1.6875 C-0.795625 1.130625 -0.40375 0.57375 0 0 Z " fill="#7DCCF8" transform="translate(829,613)"/>
<path d="M0 0 C2.64 0 5.28 0 8 0 C8 0.99 8 1.98 8 3 C6.35 3 4.7 3 3 3 C3 3.99 3 4.98 3 6 C4.65 6 6.3 6 8 6 C8 6.66 8 7.32 8 8 C6.35 8 4.7 8 3 8 C3 8.99 3 9.98 3 11 C4.65 11 6.3 11 8 11 C8 11.66 8 12.32 8 13 C5.36 13 2.72 13 0 13 C0 8.71 0 4.42 0 0 Z " fill="#8FD1F8" transform="translate(686,652)"/>
<path d="M0 0 C2.33294775 -0.04241723 4.66702567 -0.04092937 7 0 C8 1 8 1 8.09765625 3.50390625 C8.08605469 4.51324219 8.07445312 5.52257812 8.0625 6.5625 C8.05347656 7.57441406 8.04445313 8.58632813 8.03515625 9.62890625 C8.02355469 10.41136719 8.01195312 11.19382812 8 12 C6.02 10.35 4.04 8.7 2 7 C2 8.65 2 10.3 2 12 C1.34 12 0.68 12 0 12 C0 8.04 0 4.08 0 0 Z " fill="#72C3F5" transform="translate(1055,653)"/>
<path d="M0 0 C2.33294775 -0.04241723 4.66702567 -0.04092937 7 0 C8 1 8 1 8.0625 3.5625 C8.041875 4.366875 8.02125 5.17125 8 6 C7.34 6 6.68 6 6 6 C6.99 7.485 6.99 7.485 8 9 C7.67 9.99 7.34 10.98 7 12 C5.35 10.35 3.7 8.7 2 7 C2 8.65 2 10.3 2 12 C1.34 12 0.68 12 0 12 C0 8.04 0 4.08 0 0 Z " fill="#9BD7F8" transform="translate(803,653)"/>
<path d="M0 0 C1.98 0 3.96 0 6 0 C6.6875 1.8125 6.6875 1.8125 7 4 C6.525625 4.4125 6.05125 4.825 5.5625 5.25 C2.98087025 8.14142532 3.81490894 11.23648185 4 15 C2.35 14.67 0.7 14.34 -1 14 C-1.625 10.625 -1.625 10.625 -2 7 C-1.34 6.34 -0.68 5.68 0 5 C0.99 5 1.98 5 3 5 C3 4.34 3 3.68 3 3 C2.01 3 1.02 3 0 3 C0 2.01 0 1.02 0 0 Z " fill="#A5D9F9" transform="translate(1033,608)"/>
<path d="M0 0 C0.66 0 1.32 0 2 0 C2 1.65 2 3.3 2 5 C3.65 5 5.3 5 7 5 C7 3.35 7 1.7 7 0 C7.99 0 8.98 0 10 0 C10 3.96 10 7.92 10 12 C9.01 12 8.02 12 7 12 C7 10.35 7 8.7 7 7 C5.35 7 3.7 7 2 7 C2 8.65 2 10.3 2 12 C1.34 12 0.68 12 0 12 C0 8.04 0 4.08 0 0 Z " fill="#84CCF5" transform="translate(668,653)"/>
<path d="M0 0 C0.99 0 1.98 0 3 0 C3.6708712 1.6232687 4.33657029 3.24867578 5 4.875 C5.556875 6.23238281 5.556875 6.23238281 6.125 7.6171875 C7 10 7 10 7 12 C6.01 12 5.02 12 4 12 C4 11.01 4 10.02 4 9 C2.02 9 0.04 9 -2 9 C-2.33 9.99 -2.66 10.98 -3 12 C-4.21386936 8.35839192 -3.6674695 7.66834531 -2.0625 4.3125 C-1.49208984 3.10013672 -1.49208984 3.10013672 -0.91015625 1.86328125 C-0.60980469 1.24839844 -0.30945313 0.63351562 0 0 Z " fill="#7FC9F6" transform="translate(962,653)"/>
<path d="M0 0 C3 1 3 1 4.6875 4.3125 C6 8 6 8 6 12 C5.34 12 4.68 12 4 12 C4 11.01 4 10.02 4 9 C2.02 9 0.04 9 -2 9 C-2.33 9.99 -2.66 10.98 -3 12 C-3.66 12 -4.32 12 -5 12 C-4.54738642 10.56068883 -4.08767021 9.12361001 -3.625 7.6875 C-3.24214844 6.48673828 -3.24214844 6.48673828 -2.8515625 5.26171875 C-2 3 -2 3 0 0 Z " fill="#75C4F5" transform="translate(706,653)"/>
<path d="M0 0 C3 1 3 1 4.6875 4.3125 C6 8 6 8 6 12 C5.34 12 4.68 12 4 12 C4 11.01 4 10.02 4 9 C2.02 9 0.04 9 -2 9 C-2.33 9.99 -2.66 10.98 -3 12 C-3.88336837 9.5332355 -4.1312406 8.36140628 -3.22265625 5.859375 C-2.83980469 5.16328125 -2.45695313 4.4671875 -2.0625 3.75 C-1.68222656 3.04359375 -1.30195312 2.3371875 -0.91015625 1.609375 C-0.60980469 1.07828125 -0.30945313 0.5471875 0 0 Z " fill="#7CC8F5" transform="translate(789,653)"/>
<path d="M0 0 C0.66 0 1.32 0 2 0 C2 1.65 2 3.3 2 5 C3.98 5 5.96 5 8 5 C8 3.35 8 1.7 8 0 C8.66 0 9.32 0 10 0 C10 3.96 10 7.92 10 12 C9.34 12 8.68 12 8 12 C8 10.35 8 8.7 8 7 C6.02 7 4.04 7 2 7 C2 8.65 2 10.3 2 12 C1.34 12 0.68 12 0 12 C0 8.04 0 4.08 0 0 Z " fill="#7FC8F5" transform="translate(749,653)"/>
<path d="M0 0 C2.64 0 5.28 0 8 0 C8 0.66 8 1.32 8 2 C6.02 2 4.04 2 2 2 C2 2.99 2 3.98 2 5 C3.65 5 5.3 5 7 5 C7 5.66 7 6.32 7 7 C5.35 7 3.7 7 2 7 C2 7.99 2 8.98 2 10 C3.98 10 5.96 10 8 10 C8 10.66 8 11.32 8 12 C5.36 12 2.72 12 0 12 C0 8.04 0 4.08 0 0 Z " fill="#82CEF9" transform="translate(820,653)"/>
<path d="M0 0 C3.3 0 6.6 0 10 0 C10 0.66 10 1.32 10 2 C9.01 2 8.02 2 7 2 C7 5.3 7 8.6 7 12 C6.01 12 5.02 12 4 12 C3.67 8.7 3.34 5.4 3 2 C2.01 2 1.02 2 0 2 C0 1.34 0 0.68 0 0 Z " fill="#B6E2FA" transform="translate(1000,653)"/>
<path d="M0 0 C3.53571429 0.53571429 3.53571429 0.53571429 5 2 C5.125 5 5.125 5 5 8 C4 9 4 9 1.5 9.125 C-1 9 -1 9 -2 8 C-2.1875 5.0625 -2.1875 5.0625 -2 2 C-1.34 1.34 -0.68 0.68 0 0 Z " fill="#F3FAFD" transform="translate(1021,654)"/>
<path d="M0 0 C0.66 0 1.32 0 2 0 C2 3.3 2 6.6 2 10 C3.65 10 5.3 10 7 10 C7 6.7 7 3.4 7 0 C7.66 0 8.32 0 9 0 C9.05395478 1.62463842 9.09277195 3.24978541 9.125 4.875 C9.14820313 5.77992188 9.17140625 6.68484375 9.1953125 7.6171875 C9 10 9 10 7 12 C3.9375 12.1875 3.9375 12.1875 1 12 C0 11 0 11 -0.09765625 8.49609375 C-0.08605469 7.48675781 -0.07445312 6.47742188 -0.0625 5.4375 C-0.05347656 4.42558594 -0.04445313 3.41367187 -0.03515625 2.37109375 C-0.02355469 1.58863281 -0.01195312 0.80617188 0 0 Z " fill="#76C8F5" transform="translate(1037,653)"/>
<path d="M0 0 C0 0.66 0 1.32 0 2 C-1.98 2.33 -3.96 2.66 -6 3 C-6 4.98 -6 6.96 -6 9 C-3.03 9.495 -3.03 9.495 0 10 C0 10.66 0 11.32 0 12 C-3.3125 12.25 -3.3125 12.25 -7 12 C-9.42061048 9.89172636 -9.9127007 8.59654522 -10.375 5.4375 C-10 3 -10 3 -8.9375 1.1875 C-6.00731249 -0.60842137 -3.3527047 -0.18977574 0 0 Z " fill="#71C0F5" transform="translate(777,653)"/>
<path d="M0 0 C2.31 0 4.62 0 7 0 C7 0.33 7 0.66 7 1 C5.35 1 3.7 1 2 1 C2 2.32 2 3.64 2 5 C3.65 5 5.3 5 7 5 C7 5.66 7 6.32 7 7 C5.35 7 3.7 7 2 7 C2 7.99 2 8.98 2 10 C3.98 10 5.96 10 8 10 C8 10.66 8 11.32 8 12 C5.36 12 2.72 12 0 12 C0 8.04 0 4.08 0 0 Z " fill="#72C4F6" transform="translate(896,653)"/>
<path d="M0 0 C0.33 0 0.66 0 1 0 C1.0809723 2.43816585 1.14046972 4.87364384 1.1875 7.3125 C1.22520508 8.34793945 1.22520508 8.34793945 1.26367188 9.40429688 C1.33760056 14.50537593 1.33760056 14.50537593 -0.34375 16.96875 C-2.61774627 18.38463447 -4.37761333 18.21262595 -7 18 C-7.33 17.01 -7.66 16.02 -8 15 C-6.02 14.67 -4.04 14.34 -2 14 C-1.93941406 13.07316406 -1.87882812 12.14632812 -1.81640625 11.19140625 C-1.73261719 9.99386719 -1.64882812 8.79632812 -1.5625 7.5625 C-1.48128906 6.36753906 -1.40007812 5.17257812 -1.31640625 3.94140625 C-1 1 -1 1 0 0 Z " fill="#7EC8F7" transform="translate(1108,614)"/>
<path d="M0 0 C0.7425 0.2475 1.485 0.495 2.25 0.75 C2.25 1.41 2.25 2.07 2.25 2.75 C0.27 3.08 -1.71 3.41 -3.75 3.75 C-3.75 5.73 -3.75 7.71 -3.75 9.75 C-1.44 10.08 0.87 10.41 3.25 10.75 C3.25 11.41 3.25 12.07 3.25 12.75 C-3.1282235 13.11103152 -3.1282235 13.11103152 -5.6875 11.625 C-7.27990283 8.81487736 -7.20319325 6.92235276 -6.75 3.75 C-4.61304198 0.66328286 -3.81689239 -0.34699022 0 0 Z " fill="#7EC8F6" transform="translate(947.75,652.25)"/>
<path d="M0 0 C1.4540625 0.0309375 1.4540625 0.0309375 2.9375 0.0625 C2.6075 0.7225 2.2775 1.3825 1.9375 2.0625 C0.9475 2.0625 -0.0425 2.0625 -1.0625 2.0625 C-1.0625 2.7225 -1.0625 3.3825 -1.0625 4.0625 C1.40076712 5.7071674 1.40076712 5.7071674 3.9375 7.0625 C3.6075 8.7125 3.2775 10.3625 2.9375 12.0625 C0.6275 12.0625 -1.6825 12.0625 -4.0625 12.0625 C-4.0625 11.4025 -4.0625 10.7425 -4.0625 10.0625 C-2.0825 10.0625 -0.1025 10.0625 1.9375 10.0625 C1.9375 9.0725 1.9375 8.0825 1.9375 7.0625 C0.2875 6.7325 -1.3625 6.4025 -3.0625 6.0625 C-3.44468767 4.40635343 -3.77645102 2.73792976 -4.0625 1.0625 C-3.0625 0.0625 -3.0625 0.0625 0 0 Z " fill="#78C7F8" transform="translate(1086.0625,652.9375)"/>
<path d="M0 0 C0.66 0 1.32 0 2 0 C2.5625 1.9375 2.5625 1.9375 3 4 C2 5 2 5 -0.04125977 5.11352539 C-0.91580811 5.10828857 -1.79035645 5.10305176 -2.69140625 5.09765625 C-3.63564453 5.09443359 -4.57988281 5.09121094 -5.55273438 5.08789062 C-6.54595703 5.07951172 -7.53917969 5.07113281 -8.5625 5.0625 C-9.55958984 5.05798828 -10.55667969 5.05347656 -11.58398438 5.04882812 C-14.05604849 5.03700007 -16.52799518 5.02051849 -19 5 C-19 4.34 -19 3.68 -19 3 C-12.4 3 -5.8 3 1 3 C0.67 2.01 0.34 1.02 0 0 Z " fill="#79C1F0" transform="translate(739,621)"/>
<path d="M0 0 C1.66611905 -0.042721 3.33382885 -0.04063832 5 0 C6 1 6 1 6.125 4 C6 7 6 7 5 8 C3.33382885 8.04063832 1.66611905 8.042721 0 8 C0 5.36 0 2.72 0 0 Z " fill="#F0F8FD" transform="translate(914,655)"/>
<path d="M0 0 C0.66 0 1.32 0 2 0 C2 4.29 2 8.58 2 13 C4.97 13.495 4.97 13.495 8 14 C8 14.33 8 14.66 8 15 C4.04 15 0.08 15 -4 15 C-4 14.34 -4 13.68 -4 13 C-2.68 13 -1.36 13 0 13 C0 8.71 0 4.42 0 0 Z " fill="#6DC3F2" transform="translate(763,611)"/>
<path d="M0 0 C1 1 1 1 1.09765625 3.06640625 C1.08605469 3.89011719 1.07445312 4.71382812 1.0625 5.5625 C1.05347656 6.38878906 1.04445313 7.21507812 1.03515625 8.06640625 C1.02355469 8.70449219 1.01195312 9.34257813 1 10 C0.67 10 0.34 10 0 10 C-0.33 7.69 -0.66 5.38 -1 3 C-2.32 3 -3.64 3 -5 3 C-5.33397787 5.87413125 -5.33397787 5.87413125 -5 9 C-3.11922127 10.91256712 -3.11922127 10.91256712 -1 12 C-3.375 12.1875 -3.375 12.1875 -6 12 C-8.45331002 8.32003497 -8.39507893 6.34586828 -8 2 C-4.77786243 -0.14809171 -3.72224599 -0.29386153 0 0 Z " fill="#73C6F9" transform="translate(693,613)"/>
<path d="M0 0 C1.67542976 0.28604898 3.34385343 0.61781233 5 1 C5 3.31 5 5.62 5 8 C3.33388095 8.042721 1.66617115 8.04063832 0 8 C-1 7 -1 7 -1.125 4 C-1 1 -1 1 0 0 Z " fill="#E3F4FD" transform="translate(688,615)"/>
<path d="M0 0 C1.2065625 0.0309375 1.2065625 0.0309375 2.4375 0.0625 C2.4375 2.3725 2.4375 4.6825 2.4375 7.0625 C0.7875 7.3925 -0.8625 7.7225 -2.5625 8.0625 C-2.94313221 5.7364143 -3.27519945 3.40194736 -3.5625 1.0625 C-2.5625 0.0625 -2.5625 0.0625 0 0 Z " fill="#EFF8FC" transform="translate(1008.5625,615.9375)"/>
<path d="M0 0 C1.98 0 3.96 0 6 0 C7 4.75 7 4.75 7 7 C4.69 7 2.38 7 0 7 C0 4.69 0 2.38 0 0 Z " fill="#B8E4FA" transform="translate(937,607)"/>
<path d="M0 0 C0.33 0 0.66 0 1 0 C1 9.24 1 18.48 1 28 C0.67 28 0.34 28 0 28 C-0.07347656 26.39318359 -0.07347656 26.39318359 -0.1484375 24.75390625 C-0.22345294 23.35674361 -0.2990013 21.9596095 -0.375 20.5625 C-0.4059375 19.85544922 -0.436875 19.14839844 -0.46875 18.41992188 C-0.57280629 16.60760812 -0.77919892 14.80182012 -1 13 C-1.66 12.67 -2.32 12.34 -3 12 C-2.01 8.04 -1.02 4.08 0 0 Z " fill="#65BCFA" transform="translate(509,568)"/>
<path d="M0 0 C0.66 0 1.32 0 2 0 C2.08090971 1.62418745 2.13914995 3.24951745 2.1875 4.875 C2.22230469 5.77992188 2.25710938 6.68484375 2.29296875 7.6171875 C2.19628906 8.40351562 2.09960938 9.18984375 2 10 C-1.22791555 12.1519437 -2.28400809 12.20086443 -6 12 C-6 11.34 -6 10.68 -6 10 C-4.35 10 -2.7 10 -1 10 C-1.01160156 9.36191406 -1.02320313 8.72382812 -1.03515625 8.06640625 C-1.04417969 7.24011719 -1.05320312 6.41382813 -1.0625 5.5625 C-1.07410156 4.73878906 -1.08570313 3.91507813 -1.09765625 3.06640625 C-1 1 -1 1 0 0 Z " fill="#7BC8F5" transform="translate(1067,614)"/>
<path d="M0 0 C0.33 0.66 0.66 1.32 1 2 C1.66 2 2.32 2 3 2 C3.28875 2.804375 3.5775 3.60875 3.875 4.4375 C4.73262568 7.1326468 4.73262568 7.1326468 7 8 C0.25 8.125 0.25 8.125 -2 7 C-1.125 2.25 -1.125 2.25 0 0 Z " fill="#80C8F3" transform="translate(847,657)"/>
<path d="M0 0 C0.66 0 1.32 0 2 0 C2.05422947 1.4370809 2.09289723 2.87475462 2.125 4.3125 C2.14820313 5.11300781 2.17140625 5.91351562 2.1953125 6.73828125 C2 9 2 9 0 12 C-2.3828125 12.29296875 -2.3828125 12.29296875 -5.125 12.1875 C-6.03507813 12.16042969 -6.94515625 12.13335938 -7.8828125 12.10546875 C-8.58148437 12.07066406 -9.28015625 12.03585937 -10 12 C-6.81237635 9.87491756 -4.73487777 9.4979837 -1 9 C-0.67 6.03 -0.34 3.06 0 0 Z " fill="#76C3F2" transform="translate(972,614)"/>
<path d="M0 0 C0.66 0 1.32 0 2 0 C2.06058594 1.13179687 2.12117188 2.26359375 2.18359375 3.4296875 C2.26799917 4.91147145 2.35264717 6.3932416 2.4375 7.875 C2.47681641 8.62136719 2.51613281 9.36773438 2.55664062 10.13671875 C2.71573624 14.19986864 2.71573624 14.19986864 4 18 C2.68 17.67 1.36 17.34 0 17 C0 11.39 0 5.78 0 0 Z " fill="#61BFF5" transform="translate(1073,607)"/>
<path d="M0 0 C0.66 0 1.32 0 2 0 C2 3.3 2 6.6 2 10 C3.98 10 5.96 10 8 10 C8 10.66 8 11.32 8 12 C5.36 12 2.72 12 0 12 C0 8.04 0 4.08 0 0 Z " fill="#7DC7F6" transform="translate(976,653)"/>
<path d="M0 0 C0.66 0 1.32 0 2 0 C2 3.3 2 6.6 2 10 C3.98 10 5.96 10 8 10 C8 10.66 8 11.32 8 12 C5.36 12 2.72 12 0 12 C0 8.04 0 4.08 0 0 Z " fill="#7ECAF9" transform="translate(720,653)"/>
<path d="M0 0 C0.99 0.33 1.98 0.66 3 1 C3.05384521 3.29141286 3.09272087 5.58318188 3.125 7.875 C3.14820313 9.15117188 3.17140625 10.42734375 3.1953125 11.7421875 C3 15 3 15 1 17 C-2.625 17.125 -2.625 17.125 -6 17 C-6 16.34 -6 15.68 -6 15 C-3.36 14.67 -0.72 14.34 2 14 C1.85866501 12.22880197 1.71176792 10.45804713 1.5625 8.6875 C1.48128906 7.70136719 1.40007813 6.71523438 1.31640625 5.69921875 C1.08187441 2.90624401 1.08187441 2.90624401 0 0 Z " fill="#6DC1F6" transform="translate(985,614)"/>
<path d="M0 0 C0.99 0.33 1.98 0.66 3 1 C3 7.93 3 14.86 3 22 C3.99 22.33 4.98 22.66 6 23 C4.68 23 3.36 23 2 23 C1.67 17.39 1.34 11.78 1 6 C0.67 6 0.34 6 0 6 C0 4.02 0 2.04 0 0 Z " fill="#95DFF7" transform="translate(377,590)"/>
<path d="M0 0 C2.475 0.495 2.475 0.495 5 1 C6.125 6.625 6.125 6.625 5 10 C0.07692308 5.69230769 0.07692308 5.69230769 -0.3125 2.1875 C-0.209375 1.465625 -0.10625 0.74375 0 0 Z " fill="#A8DCFB" transform="translate(1057,655)"/>
<path d="M0 0 C2.97 0 5.94 0 9 0 C9 0.66 9 1.32 9 2 C7.68 2 6.36 2 5 2 C5 5.3 5 8.6 5 12 C4.34 12 3.68 12 3 12 C3 8.37 3 4.74 3 1 C2.01 0.67 1.02 0.34 0 0 Z " fill="#6FC2F6" transform="translate(733,653)"/>
<path d="M0 0 C1.65 0 3.3 0 5 0 C5 2.31 5 4.62 5 7 C3.35 7 1.7 7 0 7 C0 4.69 0 2.38 0 0 Z " fill="#EEF8FD" transform="translate(981,616)"/>
<path d="M0 0 C1.65 0 3.3 0 5 0 C5 2.31 5 4.62 5 7 C3.35 7 1.7 7 0 7 C0 4.69 0 2.38 0 0 Z " fill="#EEF8FD" transform="translate(952,616)"/>
<path d="M0 0 C1.65 0 3.3 0 5 0 C5 1.98 5 3.96 5 6 C3.35 6.33 1.7 6.66 0 7 C0 4.69 0 2.38 0 0 Z " fill="#F1F9FD" transform="translate(906,616)"/>
<path d="M0 0 C1.66611905 -0.042721 3.33382885 -0.04063832 5 0 C6 1 6 1 6.0625 3.5625 C6.041875 4.366875 6.02125 5.17125 6 6 C4.33388095 6.042721 2.66617115 6.04063832 1 6 C0 5 0 5 -0.0625 2.4375 C-0.041875 1.633125 -0.02125 0.82875 0 0 Z " fill="#E7F6FD" transform="translate(829,616)"/>
<path d="M0 0 C1.32 0 2.64 0 4 0 C4.33 1.98 4.66 3.96 5 6 C2.69 6 0.38 6 -2 6 C-1.49396008 3.83125748 -1.00016187 2.00032373 0 0 Z " fill="#A0D5F7" transform="translate(970,606)"/>
<path d="M0 0 C0.33 1.32 0.66 2.64 1 4 C3.86724686 3.42655063 4.8614515 3.1385485 7 1 C7 2.32 7 3.64 7 5 C6.34 5 5.68 5 5 5 C5.99 6.485 5.99 6.485 7 8 C6.67 8.99 6.34 9.98 6 11 C4.35 9.35 2.7 7.7 1 6 C0.67 7.32 0.34 8.64 0 10 C0 6.7 0 3.4 0 0 Z " fill="#5EBDF6" transform="translate(804,654)"/>
<path d="M0 0 C1.32 0 2.64 0 4 0 C4 2.31 4 4.62 4 7 C2.35 6.67 0.7 6.34 -1 6 C-1.042721 4.33388095 -1.04063832 2.66617115 -1 1 C-0.67 0.67 -0.34 0.34 0 0 Z " fill="#E6F5FC" transform="translate(1033,616)"/>
<path d="M0 0 C0.33 0 0.66 0 1 0 C2.33517241 7.40413793 2.33517241 7.40413793 0.875 10 C-1.53381842 11.28470316 -3.30972879 11.2181301 -6 11 C-6.33 10.01 -6.66 9.02 -7 8 C-5.02 7.67 -3.04 7.34 -1 7 C-0.67 4.69 -0.34 2.38 0 0 Z " fill="#7AC7F4" transform="translate(814,621)"/>
<path d="M0 0 C0.33 0 0.66 0 1 0 C1 1.65 1 3.3 1 5 C3.31 5.33 5.62 5.66 8 6 C8 6.66 8 7.32 8 8 C4.95613276 8.08226668 2.92824652 7.97608217 0 7 C-2.33299825 6.96045766 -4.66708189 6.95598268 -7 7 C-7 6.67 -7 6.34 -7 6 C-5.5459375 5.62875 -5.5459375 5.62875 -4.0625 5.25 C-2.5465625 4.63125 -2.5465625 4.63125 -1 4 C-0.03122943 1.96756452 -0.03122943 1.96756452 0 0 Z " fill="#6DC4F6" transform="translate(1003,618)"/>
<path d="M0 0 C0.66 0 1.32 0 2 0 C2 1.65 2 3.3 2 5 C1.360625 5.103125 0.72125 5.20625 0.0625 5.3125 C-0.618125 5.539375 -1.29875 5.76625 -2 6 C-2.33 6.99 -2.66 7.98 -3 9 C-3.66 9 -4.32 9 -5 9 C-4.34 6.69 -3.68 4.38 -3 2 C-2.34 2 -1.68 2 -1 2 C-0.67 1.34 -0.34 0.68 0 0 Z " fill="#9AD6F7" transform="translate(706,656)"/>
<path d="M0 0 C1.65 0.33 3.3 0.66 5 1 C5 2.32 5 3.64 5 5 C3.02 5 1.04 5 -1 5 C-0.67 3.35 -0.34 1.7 0 0 Z " fill="#D8EDFB" transform="translate(736,615)"/>
<path d="M0 0 C0 0.99 0 1.98 0 3 C-1.65 3 -3.3 3 -5 3 C-5 4.98 -5 6.96 -5 9 C-5.99 9.33 -6.98 9.66 -8 10 C-8.36272727 3.59181818 -8.36272727 3.59181818 -6.8125 1.0625 C-4.43958382 -0.32851983 -2.70313576 -0.21917317 0 0 Z " fill="#A1D8F7" transform="translate(911,613)"/>
<path d="M0 0 C2.4375 0.375 2.4375 0.375 5 1 C6.6415049 4.2830098 5.51888624 7.42545033 5 11 C3.35 11 1.7 11 0 11 C1.32 10.67 2.64 10.34 4 10 C4 7.69 4 5.38 4 3 C2.35 2.67 0.7 2.34 -1 2 C-0.67 1.34 -0.34 0.68 0 0 Z " fill="#A1D6FA" transform="translate(953,613)"/>
<path d="M0 0 C1.65 0 3.3 0 5 0 C5.33 1.65 5.66 3.3 6 5 C6.99 5.33 7.98 5.66 9 6 C8.34 6 7.68 6 7 6 C7 6.66 7 7.32 7 8 C6.01 7.67 5.02 7.34 4 7 C4 6.01 4 5.02 4 4 C3.34 4 2.68 4 2 4 C2 3.01 2 2.02 2 1 C1.34 0.67 0.68 0.34 0 0 Z " fill="#B2DEF9" transform="translate(847,653)"/>
<path d="M0 0 C0.66 0 1.32 0 2 0 C1.67 1.65 1.34 3.3 1 5 C0.01 5.33 -0.98 5.66 -2 6 C-2.33 6.99 -2.66 7.98 -3 9 C-3.625 7.1875 -3.625 7.1875 -4 5 C-2 2 -2 2 0 0 Z " fill="#ADDDF7" transform="translate(789,656)"/>
<path d="M0 0 C2.97 0 5.94 0 9 0 C9 0.66 9 1.32 9 2 C7.68 2 6.36 2 5 2 C5 4.97 5 7.94 5 11 C4.67 11 4.34 11 4 11 C3.96261719 10.37351562 3.92523437 9.74703125 3.88671875 9.1015625 C3.82097656 8.28429687 3.75523437 7.46703125 3.6875 6.625 C3.62949219 5.81289063 3.57148437 5.00078125 3.51171875 4.1640625 C3.17009472 1.62078662 3.17009472 1.62078662 0 0 Z " fill="#6FC3F6" transform="translate(1001,653)"/>
<path d="M0 0 C2.475 0.495 2.475 0.495 5 1 C5 2.32 5 3.64 5 5 C3.35 5 1.7 5 0 5 C0 3.35 0 1.7 0 0 Z " fill="#EFF9FD" transform="translate(938,615)"/>
<path d="M0 0 C2.171875 0.3671875 2.171875 0.3671875 4 1 C3.51789062 1.39832031 3.03578125 1.79664063 2.5390625 2.20703125 C1.59160156 3.00173828 1.59160156 3.00173828 0.625 3.8125 C-0.00148438 4.33457031 -0.62796875 4.85664063 -1.2734375 5.39453125 C-3.2221048 7.08225739 -3.2221048 7.08225739 -5 10 C-5.3125 7.8125 -5.3125 7.8125 -5 5 C-2.75 2.125 -2.75 2.125 0 0 Z " fill="#4BB5F9" transform="translate(947,485)"/>
<path d="M0 0 C0.99 0.33 1.98 0.66 3 1 C2.67 2.65 2.34 4.3 2 6 C-0.31 6 -2.62 6 -5 6 C-5 5.34 -5 4.68 -5 4 C-3.02 4 -1.04 4 1 4 C0.67 2.68 0.34 1.36 0 0 Z " fill="#6CC0F5" transform="translate(1087,659)"/>
<path d="M0 0 C1.125 1.75 1.125 1.75 2 4 C1.125 6.25 1.125 6.25 0 8 C-2.31 8 -4.62 8 -7 8 C-6.67 7.34 -6.34 6.68 -6 6 C-3.4375 5.375 -3.4375 5.375 -1 5 C-0.67 3.35 -0.34 1.7 0 0 Z " fill="#8AD2FB" transform="translate(1026,657)"/>
<path d="M0 0 C0.33 0 0.66 0 1 0 C1.33 1.65 1.66 3.3 2 5 C4.97 5.495 4.97 5.495 8 6 C8 6.66 8 7.32 8 8 C4.625 8.1875 4.625 8.1875 1 8 C-1 5 -1 5 -0.625 2.3125 C-0.41875 1.549375 -0.2125 0.78625 0 0 Z " fill="#82C9F7" transform="translate(769,657)"/>
<path d="M0 0 C0.598125 0.226875 1.19625 0.45375 1.8125 0.6875 C1.8125 1.3475 1.8125 2.0075 1.8125 2.6875 C0.4925 3.0175 -0.8275 3.3475 -2.1875 3.6875 C-2.1875 5.6675 -2.1875 7.6475 -2.1875 9.6875 C-2.8475 9.6875 -3.5075 9.6875 -4.1875 9.6875 C-5.52304084 3.25262141 -5.52304084 3.25262141 -4 0.6875 C-2.1875 -0.3125 -2.1875 -0.3125 0 0 Z " fill="#8ED2F8" transform="translate(1008.1875,613.3125)"/>
<path d="M0 0 C5.875 0.875 5.875 0.875 7 2 C7.04092937 4.33297433 7.04241723 6.66705225 7 9 C6.67 9 6.34 9 6 9 C5.34 7.02 4.68 5.04 4 3 C2.02 3 0.04 3 -2 3 C-1.34 2.01 -0.68 1.02 0 0 Z " fill="#66BEF5" transform="translate(938,613)"/>
<path d="M0 0 C1.65 0 3.3 0 5 0 C5.33 1.65 5.66 3.3 6 5 C3 7 3 7 0.3125 6.625 C-0.450625 6.41875 -1.21375 6.2125 -2 6 C-2 5.67 -2 5.34 -2 5 C-0.35 4.67 1.3 4.34 3 4 C3.33 3.01 3.66 2.02 4 1 C2.68 0.67 1.36 0.34 0 0 Z " fill="#7FC7F3" transform="translate(953,625)"/>
<path d="M0 0 C0.33 0 0.66 0 1 0 C1.33 1.65 1.66 3.3 2 5 C3.65 5 5.3 5 7 5 C7.33 5.99 7.66 6.98 8 8 C5.66705225 8.04241723 3.33297433 8.04092937 1 8 C0 7 0 7 -0.0625 3.4375 C-0.041875 2.303125 -0.02125 1.16875 0 0 Z " fill="#75C3F3" transform="translate(904,617)"/>
<path d="M0 0 C0.556875 0.78375 1.11375 1.5675 1.6875 2.375 C4.07668565 5.08704858 5.60073413 5.96133543 9 7 C9 7.33 9 7.66 9 8 C6.69 8 4.38 8 2 8 C0.23537317 4.91190305 0 3.76687864 0 0 Z " fill="#58BAF5" transform="translate(827,617)"/>
<path d="M0 0 C0 1.65 0 3.3 0 5 C-2.97 4.67 -5.94 4.34 -9 4 C-6.43425105 1.43425105 -3.68548192 0 0 0 Z " fill="#5ABDFB" transform="translate(1088,539)"/>
<path d="M0 0 C0.33 0 0.66 0 1 0 C1.268125 1.11375 1.53625 2.2275 1.8125 3.375 C2.65809019 7.21840951 2.65809019 7.21840951 6 9 C3.625 9.1875 3.625 9.1875 1 9 C-1.14809171 5.77786243 -1.29386153 4.72224599 -1 1 C-0.67 0.67 -0.34 0.34 0 0 Z " fill="#5FBCF4" transform="translate(686,616)"/>
<path d="M0 0 C0.99 0 1.98 0 3 0 C3 1.32 3 2.64 3 4 C2.34 4 1.68 4 1 4 C1 6.64 1 9.28 1 12 C0.67 12 0.34 12 0 12 C0 8.04 0 4.08 0 0 Z " fill="#62BAF3" transform="translate(1098,653)"/>
<path d="M0 0 C1.98 0 3.96 0 6 0 C6 0.99 6 1.98 6 3 C3.69 3 1.38 3 -1 3 C-0.67 2.01 -0.34 1.02 0 0 Z " fill="#9FD8F7" transform="translate(1063,628)"/>
<path d="M0 0 C0.94875 0.04125 1.8975 0.0825 2.875 0.125 C3.205 0.785 3.535 1.445 3.875 2.125 C2.76125 1.9703125 2.76125 1.9703125 1.625 1.8125 C-1.37572867 1.8504586 -1.37572867 1.8504586 -3.4375 4.625 C-4.2728125 5.8625 -4.2728125 5.8625 -5.125 7.125 C-5.25 4.75 -5.25 4.75 -5.125 2.125 C-3.125 0.125 -3.125 0.125 0 0 Z " fill="#5FBDF8" transform="translate(1094.125,613.875)"/>
<path d="M0 0 C1.98 0.99 1.98 0.99 4 2 C4 2.66 4 3.32 4 4 C4.66 4.33 5.32 4.66 6 5 C4.35 5 2.7 5 1 5 C0.67 3.35 0.34 1.7 0 0 Z " fill="#B4DFF8" transform="translate(848,660)"/>
<path d="M0 0 C2 3 2 3 1.625 5.1875 C1.41875 5.785625 1.2125 6.38375 1 7 C0.01 7 -0.98 7 -2 7 C-1.125 2.25 -1.125 2.25 0 0 Z " fill="#ACDEFB" transform="translate(964,653)"/>
<path d="M0 0 C1.98 0 3.96 0 6 0 C6 0.99 6 1.98 6 3 C4.02 3 2.04 3 0 3 C0 2.01 0 1.02 0 0 Z " fill="#94D3F9" transform="translate(906,608)"/>
<path d="M0 0 C1.98 0 3.96 0 6 0 C6 0.99 6 1.98 6 3 C4.02 3 2.04 3 0 3 C0 2.01 0 1.02 0 0 Z " fill="#92D1FA" transform="translate(687,608)"/>
<path d="M0 0 C-0.33 0.99 -0.66 1.98 -1 3 C-3.875 3.125 -3.875 3.125 -7 3 C-7.66 2.34 -8.32 1.68 -9 1 C-2.25 0 -2.25 0 0 0 Z " fill="#78C7F7" transform="translate(874,623)"/>
<path d="M0 0 C2.97 0.495 2.97 0.495 6 1 C6 1.66 6 2.32 6 3 C6.66 3.33 7.32 3.66 8 4 C2.25 3.125 2.25 3.125 0 2 C0 1.34 0 0.68 0 0 Z " fill="#6ABCFA" transform="translate(411,437)"/>
</svg>
